<svg width="169" height="33" viewBox="0 0 169 33" fill="none" xmlns="http://www.w3.org/2000/svg">
<g clip-path="url(#clip0_27_469)">
<path d="M1.995 29.869C0.612076 28.0361 -0.0945132 25.7814 -0.0049993 23.487C-0.0778568 20.0817 0.870533 16.7325 2.718 13.871C3.53636 12.5773 4.66645 11.5098 6.00463 10.7663C7.3428 10.0229 8.84623 9.62736 10.377 9.616C13.398 9.616 15.61 11.148 16.248 13.488L18.163 10.127H25.183L22.63 24.721C22.5538 24.9394 22.5248 25.1715 22.545 25.402C22.545 26.04 22.8 26.338 23.438 26.338C23.8331 26.3221 24.2222 26.2357 24.587 26.083L23.694 31.274C22.3852 31.8706 20.9623 32.1753 19.524 32.167C16.333 32.167 14.163 30.337 14.163 27.742V27.402C13.6812 28.8263 12.7656 30.0641 11.5446 30.9416C10.3237 31.8192 8.8586 32.2924 7.355 32.295C6.33554 32.3275 5.3222 32.1257 4.39296 31.7051C3.46373 31.2845 2.64337 30.6564 1.995 29.869ZM11.313 25.7C12.972 25.7 14.121 24.253 14.632 21.658C14.8603 20.5645 15.0024 19.4547 15.057 18.339C15.057 16.68 14.249 15.786 12.717 15.786C11.526 15.786 10.547 16.509 9.739 17.913C9.07369 19.3662 8.75335 20.9535 8.803 22.551C8.807 24.55 9.743 25.699 11.318 25.699L11.313 25.7ZM38.506 9.616C44.079 9.616 47.356 12.849 47.356 18.083L39.956 19.019C40.084 16.977 39.403 15.785 38.041 15.785C36.892 15.785 36.126 16.385 35.318 17.912C34.7082 19.4436 34.377 21.0719 34.34 22.72C34.34 24.933 35.148 26.081 36.68 26.081C37.999 26.081 38.85 25.017 39.318 23.103L46.381 25.443C44.807 29.995 41.403 32.293 36.17 32.293C33.4714 32.4178 30.8305 31.485 28.809 29.693C27.8753 28.8116 27.1415 27.7402 26.6571 26.5512C26.1727 25.3621 25.949 24.0829 26.001 22.8C25.9549 19.9631 26.7225 17.1723 28.213 14.758C29.3473 13.0938 30.8886 11.7475 32.6903 10.8474C34.492 9.94738 36.4941 9.52345 38.506 9.616ZM60.035 9.616C62.7463 9.48493 65.4016 10.4179 67.435 12.216C68.3753 13.0923 69.1136 14.1628 69.5985 15.3531C70.0834 16.5434 70.3033 17.8251 70.243 19.109C70.3223 21.9561 69.536 24.7602 67.988 27.151C65.733 30.551 62.201 32.299 57.734 32.299C55.0354 32.4238 52.3945 31.491 50.373 29.699C49.4393 28.8177 48.7054 27.7463 48.221 26.5572C47.7366 25.3681 47.5129 24.0889 47.565 22.806C47.5189 19.9691 48.2865 17.1783 49.777 14.764C50.9023 13.0987 52.4367 11.7505 54.233 10.849C56.0294 9.94755 58.0273 9.52294 60.035 9.616ZM58.206 26.082C59.355 26.082 60.12 25.482 60.929 23.997C61.5392 22.4655 61.8707 20.8372 61.908 19.189C61.908 16.977 61.1 15.789 59.608 15.789C58.459 15.789 57.693 16.389 56.885 17.916C56.2747 19.4475 55.9432 21.0758 55.906 22.724C55.908 24.933 56.674 26.082 58.206 26.082ZM74.057 10.126H82.652L80.525 22.379C80.4259 22.7679 80.3828 23.1689 80.397 23.57C80.397 24.889 80.95 25.527 82.141 25.527C83.673 25.527 84.741 24.208 85.204 21.783L87.246 10.125H95.841L93.289 24.72C93.2128 24.9384 93.1838 25.1705 93.204 25.401C93.204 26.039 93.459 26.337 94.097 26.337C94.4921 26.321 94.8812 26.2347 95.246 26.082L94.353 31.273C93.0493 31.8848 91.6229 32.1903 90.183 32.166C86.992 32.166 84.822 30.336 84.822 27.741V27.4C84.2868 28.8489 83.3167 30.0968 82.0445 30.9728C80.7724 31.8487 79.2605 32.3099 77.716 32.293C73.972 32.293 71.462 29.783 71.462 25.868C71.4552 25.1835 71.5121 24.4999 71.632 23.826L74.057 10.126ZM98.715 30.464C97.8459 29.9433 97.1118 29.2251 96.5722 28.3677C96.0325 27.5103 95.7026 26.5378 95.609 25.529L103.183 24.55C103.247 25.2317 103.579 25.8602 104.105 26.2986C104.631 26.7369 105.309 26.9495 105.991 26.89C107.182 26.89 107.906 26.337 107.906 25.358C107.906 24.677 107.438 24.337 104.757 23.658C103.122 23.3718 101.552 22.7961 100.119 21.958C99.4146 21.503 98.8429 20.8699 98.4618 20.1229C98.0807 19.3759 97.9038 18.5414 97.949 17.704C97.923 16.5796 98.164 15.4651 98.6521 14.4519C99.1402 13.4386 99.8616 12.5555 100.757 11.875C102.821 10.3136 105.362 9.51661 107.948 9.62C114.032 9.62 117.606 12.3 117.606 16.726L110.415 17.109C110.425 16.8028 110.368 16.4982 110.249 16.216C110.13 15.9339 109.951 15.6809 109.724 15.4746C109.498 15.2684 109.23 15.1136 108.938 15.0212C108.646 14.9287 108.337 14.9007 108.033 14.939C106.884 14.939 106.161 15.492 106.161 16.386C106.161 17.067 106.629 17.45 109.48 18.173C112.203 18.8963 114.032 19.7047 114.969 20.598C115.446 21.0327 115.823 21.5664 116.073 22.1617C116.323 22.7571 116.44 23.3998 116.416 24.045C116.443 25.2071 116.19 26.3586 115.679 27.4027C115.168 28.4468 114.414 29.353 113.48 30.045C111.248 31.6264 108.554 32.4198 105.821 32.3C103.323 32.4015 100.851 31.7628 98.715 30.464ZM132.923 24.337L132.966 30.208C131.078 31.6499 128.745 32.3873 126.371 32.293C121.819 32.293 119.266 30.123 119.266 26.251C119.266 25.698 119.351 25.06 119.394 24.422L120.84 16.38H118.24L119.304 10.125H121.984L122.792 5.525L131.514 4.589L130.536 10.12H135.514L134.408 16.375H129.388L128.196 23.225C128.153 23.608 128.111 23.778 128.111 23.949C128.111 24.97 128.711 25.481 129.77 25.481C130.918 25.4561 132.026 25.0541 132.923 24.337ZM137.988 10.127H146.583L144.03 24.721C143.954 24.9394 143.925 25.1715 143.945 25.402C143.945 26.04 144.245 26.338 144.796 26.338C145.205 26.3268 145.609 26.2403 145.987 26.083L145.051 31.274C143.714 31.8746 142.262 32.1792 140.796 32.167C137.222 32.167 135.18 30.252 135.18 26.891C135.18 26.38 135.265 25.87 135.308 25.359L137.988 10.127ZM143.388 0.001C146.111 0.001 148.111 1.66 148.111 4.213C148.111 6.766 145.984 8.553 143.261 8.553C140.538 8.553 138.538 6.894 138.538 4.341C138.538 1.788 140.668 0 143.392 0L143.388 0.001ZM159.901 9.616C165.474 9.616 168.751 12.849 168.751 18.083L161.351 19.019C161.479 16.977 160.798 15.785 159.437 15.785C158.288 15.785 157.522 16.385 156.714 17.912C156.104 19.4436 155.772 21.0718 155.735 22.72C155.735 24.933 156.543 26.081 158.075 26.081C159.394 26.081 160.245 25.017 160.713 23.103L167.776 25.443C166.202 29.995 162.798 32.293 157.565 32.293C154.866 32.4178 152.226 31.485 150.204 29.693C149.27 28.8116 148.537 27.7402 148.052 26.5512C147.568 25.3621 147.344 24.0829 147.396 22.8C147.35 19.9631 148.117 17.1723 149.608 14.758C150.742 13.0938 152.284 11.7475 154.085 10.8474C155.887 9.94738 157.889 9.52345 159.901 9.616Z" fill="white"/>
</g>
<defs>
<clipPath id="clip0_27_469">
<rect width="168.75" height="32.294" fill="white"/>
</clipPath>
</defs>
</svg>
